<?xml version="1.0" standalone="no"?><!DOCTYPE svg PUBLIC "-//W3C//DTD SVG 1.1//EN" "http://www.w3.org/Graphics/SVG/1.1/DTD/svg11.dtd"><svg t="1529565726187" class="icon" style="" viewBox="0 0 1024 1024" version="1.1" xmlns="http://www.w3.org/2000/svg" p-id="9298" xmlns:xlink="http://www.w3.org/1999/xlink" width="200" height="200"><defs><style type="text/css"></style></defs><path d="M938.619904 54.539264 369.472512 54.539264c-17.78688 0-32.228352 14.403584-32.228352 32.192512l0 260.953088 64.402432 0L401.646592 118.923264l413.12768 0-166.329344 94.32064c-10.07616 5.726208-16.320512 16.408576-16.320512 28.005376l0 498.33984L401.645568 739.58912 401.645568 562.221056l-64.401408 0 0 209.558528c0 17.78688 14.441472 32.192512 32.228352 32.192512L632.12544 803.972096l0 122.3168c0 11.460608 6.083584 22.053888 15.997952 27.815936 5.010432 2.9184 10.594304 4.375552 16.192512 4.375552 5.513216 0 10.950656-1.38752 15.89248-4.18816l267.80672-151.877632c13.16864-4.052992 22.797312-16.149504 22.797312-30.636032L970.812416 86.731776C970.812416 68.943872 956.406784 54.539264 938.619904 54.539264zM442.500096 500.125696c24.891392 0 45.058048-20.175872 45.058048-45.075456 0-24.87296-20.166656-45.058048-45.058048-45.058048L270.229504 409.992192l0-84.01408c0-7.281664-4.098048-13.92128-10.559488-17.221632-6.477824-3.283968-14.226432-2.69312-20.094976 1.59232L61.81376 439.430144c-4.992 3.648512-7.980032 9.448448-7.980032 15.62112 0 6.191104 2.988032 12.024832 7.980032 15.657984l177.728512 129.107968c3.362816 2.443264 7.335936 3.6864 11.343872 3.6864 3.008512 0 6.012928-0.679936 8.78592-2.093056 6.46144-3.3024 10.559488-9.950208 10.559488-17.232896l0-84.04992L442.500096 500.125696 442.500096 500.125696z" p-id="9299"></path></svg>