<?xml version="1.0" standalone="no"?><!DOCTYPE svg PUBLIC "-//W3C//DTD SVG 1.1//EN" "http://www.w3.org/Graphics/SVG/1.1/DTD/svg11.dtd"><svg t="1527662965154" class="icon" style="" viewBox="0 0 1024 1024" version="1.1" xmlns="http://www.w3.org/2000/svg" p-id="554" xmlns:xlink="http://www.w3.org/1999/xlink" width="200" height="200"><defs><style type="text/css"></style></defs><path d="M512 192c-202.83 0-375.58 128.75-441 309a32.27 32.27 0 0 0 0 22c65.41 180.23 238.16 309 441 309s375.58-128.75 441-309a32.27 32.27 0 0 0 0-22c-65.42-180.25-238.17-309-441-309z m0 576c-171.06 0-317.35-106.06-376.71-256C194.65 362.06 340.94 256 512 256s317.35 106.06 376.71 256C829.35 661.94 683.06 768 512 768z" p-id="555"></path><path d="M512 352a160 160 0 1 0 160 160 160 160 0 0 0-160-160z m0 256a96 96 0 1 1 96-96 96 96 0 0 1-96 96z" p-id="556"></path></svg>