<?xml version="1.0" standalone="no"?><!DOCTYPE svg PUBLIC "-//W3C//DTD SVG 1.1//EN" "http://www.w3.org/Graphics/SVG/1.1/DTD/svg11.dtd"><svg t="1527129579122" class="icon" style="" viewBox="0 0 1024 1024" version="1.1" xmlns="http://www.w3.org/2000/svg" p-id="668" xmlns:xlink="http://www.w3.org/1999/xlink" width="300" height="300"><defs><style type="text/css"></style></defs><path d="M375.60775111 841.99196445h-135.13728v76.27548444h211.26485334l-73.20576-73.20120889zM351.78609778 662.28565333h-242.08497778v-484.26325333h740.77525333v180.13070222l52.34005334-37.38055111 56.51000888 56.50659556v-303.71953778h-958.47651555v704.22755556h350.93504zM1023.14894222 721.16110222v-112.84024889l-86.16846222-14.34737778c-3.50435555-10.64163555-7.77671111-20.93624889-12.73059555-30.82467555l50.77105777-71.04512-79.78097777-79.77756445-70.9586489 50.67776c-9.92483555-5.02897778-20.29112889-9.31953778-31.00785777-12.84209777l-14.34737778-86.016h-112.84935111l-14.31096889 85.97845333c-10.71786667 3.52256-21.04661333 7.85180445-30.97258667 12.84209778l-70.95637333-50.67776-79.76391111 79.76049778 50.75171556 71.06218666c-4.95274667 9.88842667-9.23079111 20.18190222-12.73059556 30.82467556l-86.20600889 14.42360889v112.84024889l86.38805333 14.38492444c3.50663111 10.56881778 7.74257778 20.75306667 12.71580445 30.55047111l-50.91783111 71.33866667 79.76391111 79.75936 71.44903111-51.02592c9.72572445 4.90040889 19.90883555 9.13863111 30.40483556 12.58723556l14.42360888 86.58488888h112.84821334l14.4384-86.58488888c10.47665778-3.44860445 20.62449778-7.65155555 30.38776888-12.58723556l71.44903112 51.04526222 79.78097778-79.77756444-50.93831112-71.31932445c4.97664-9.81674667 9.21372445-20.00099555 12.71808-30.55047111l86.35050667-14.44181333zM722.51733333 754.56398222c-49.61393778 0-89.8048-40.18858667-89.8048-89.80252444 0-49.61735111 40.18972445-89.80366222 89.8048-89.80366223 49.61621333 0 89.80707555 40.18517333 89.80707556 89.80366223 0 49.61393778-40.19086222 89.80252445-89.80707556 89.80252444z" p-id="669"></path></svg>